# Blender v2.77 (sub 0) OBJ File: 'KW1.blend'
# www.blender.org
mtllib wepkyoko1.mtl
o 0-0-0
v -0.173646 8.001648 0.100254
v -0.173646 8.001648 -0.100255
v 0.000000 8.001648 0.200508
v 0.000000 8.001648 -0.200510
v 0.173646 8.001648 0.100254
v 0.173646 8.001648 -0.100255
v 0.000000 8.463623 0.200508
v -0.173646 8.463623 -0.100255
v -0.173646 8.463623 0.100254
v 0.000000 8.463623 -0.200510
v 0.173646 8.463623 -0.100255
v 0.173646 8.463623 0.100254
v 0.000000 -11.191910 0.200510
v -0.173646 -11.191910 -0.100254
v -0.173646 -11.191910 0.100255
v 0.000000 -11.191910 -0.200508
v 0.173646 -11.191910 -0.100254
v 0.173646 -11.191910 0.100255
v 0.000000 13.872901 -0.000001
v -0.130229 12.059481 -0.000001
v 0.000000 9.491510 1.267336
v -0.182416 9.391797 0.759975
v -0.184378 9.223449 0.811703
v -0.130229 12.059481 -0.000001
v -0.040097 10.486220 -0.000001
v -0.182416 9.391797 0.759975
v -0.065083 9.236365 0.311577
v -0.040097 10.486220 -0.000001
v -0.176587 8.983512 -0.000001
v -0.065083 9.236365 0.311577
v -0.072139 8.887464 0.397548
v -0.055603 8.690979 0.227011
v -0.088293 8.461159 -0.000001
v -0.045112 8.461159 0.148260
v 0.000000 13.872901 -0.000001
v 0.000000 9.491510 -1.267338
v -0.130229 12.059481 -0.000001
v -0.182416 9.391797 -0.759976
v -0.184378 9.223449 -0.811704
v -0.184378 9.223449 -0.811704
v 0.000000 9.491510 -1.267338
v 0.184378 9.223449 -0.811704
v 0.182416 9.391797 -0.759976
v -0.182416 9.391797 -0.759976
v -0.065083 9.236365 -0.311579
v -0.182416 9.391797 -0.759976
v 0.065082 9.236365 -0.311579
v 0.182416 9.391797 -0.759976
v -0.130229 12.059481 -0.000001
v -0.182416 9.391797 -0.759976
v -0.040097 10.486220 -0.000001
v -0.065083 9.236365 -0.311579
v 0.072139 8.887464 -0.397549
v -0.065083 9.236365 -0.311579
v 0.065082 9.236365 -0.311579
v -0.072139 8.887464 -0.397549
v 0.055603 8.690979 -0.227012
v -0.055603 8.690979 -0.227012
v -0.045112 8.461159 -0.148261
v 0.045112 8.461159 -0.148261
v -0.040097 10.486220 -0.000001
v -0.065083 9.236365 -0.311579
v -0.176587 8.983512 -0.000001
v -0.072139 8.887464 -0.397549
v -0.055603 8.690979 -0.227012
v -0.088293 8.461159 -0.000001
v -0.045112 8.461159 -0.148261
v 0.000000 13.872901 -0.000001
v 0.000000 9.491510 1.267336
v 0.130229 12.059481 -0.000001
v 0.182416 9.391797 0.759975
v 0.184378 9.223449 0.811703
v -0.184378 9.223449 0.811703
v 0.184378 9.223449 0.811703
v 0.000000 9.491510 1.267336
v 0.182416 9.391797 0.759975
v -0.182416 9.391797 0.759975
v -0.065083 9.236365 0.311577
v 0.065082 9.236365 0.311577
v -0.182416 9.391797 0.759975
v 0.182416 9.391797 0.759975
v 0.130229 12.059481 -0.000001
v 0.182416 9.391797 0.759975
v 0.040097 10.486220 -0.000001
v 0.065082 9.236365 0.311577
v -0.065083 9.236365 0.311577
v 0.072139 8.887464 0.397548
v 0.065082 9.236365 0.311577
v -0.072139 8.887464 0.397548
v 0.055603 8.690979 0.227011
v -0.055603 8.690979 0.227011
v 0.045112 8.461159 0.148260
v -0.045112 8.461159 0.148260
v 0.040097 10.486220 -0.000001
v 0.065082 9.236365 0.311577
v 0.176587 8.983512 -0.000001
v 0.072139 8.887464 0.397548
v 0.055603 8.690979 0.227011
v 0.088293 8.461159 -0.000001
v 0.045112 8.461159 0.148260
v 0.000000 13.872901 -0.000001
v 0.130229 12.059481 -0.000001
v 0.000000 9.491510 -1.267338
v 0.182416 9.391797 -0.759976
v 0.184378 9.223449 -0.811704
v 0.130229 12.059481 -0.000001
v 0.040097 10.486220 -0.000001
v 0.182416 9.391797 -0.759976
v 0.065082 9.236365 -0.311579
v 0.040097 10.486220 -0.000001
v 0.176587 8.983512 -0.000001
v 0.065082 9.236365 -0.311579
v 0.072139 8.887464 -0.397549
v 0.055603 8.690979 -0.227012
v 0.088293 8.461159 -0.000001
v 0.045112 8.461159 -0.148261
v 0.173646 8.001648 0.100254
v 0.173646 8.001648 -0.100255
v 0.173646 8.463623 0.100254
v 0.000000 8.001648 0.200508
v 0.000000 8.463623 0.200508
v 0.173646 8.463623 -0.100255
v 0.000000 8.001648 -0.200510
v -0.173646 8.463623 0.100254
v -0.173646 8.001648 0.100254
v 0.000000 8.463623 -0.200510
v -0.173646 8.001648 -0.100255
v -0.173646 8.463623 -0.100255
v 0.129951 -11.191920 0.000001
v 0.000000 -11.191920 -0.150054
v 0.129951 8.001648 -0.000001
v 0.000000 -11.191920 0.150056
v 0.000000 8.001648 0.150054
v 0.000000 8.001648 -0.150056
v -0.129951 -11.191920 0.000001
v -0.129951 8.001648 -0.000001
v 0.173646 -11.634650 0.100255
v 0.173646 -11.634650 -0.100254
v 0.173646 -11.191910 0.100255
v 0.173646 -11.191910 -0.100254
v 0.000000 -11.191910 0.200510
v 0.000000 -11.634650 0.200510
v 0.000000 -11.965660 0.000001
v 0.000000 -11.634650 -0.200508
v 0.000000 -11.191910 -0.200508
v -0.173646 -11.634650 -0.100254
v -0.173646 -11.634650 0.100255
v -0.173646 -11.191910 0.100255
v -0.173646 -11.191910 -0.100254
vt 0.5161 0.8192
vt 0.4272 0.8192
vt 0.5605 0.8937
vt 0.3828 0.8937
vt 0.5161 0.9684
vt 0.4272 0.9684
vt 0.5605 0.8937
vt 0.4272 0.8192
vt 0.5161 0.8192
vt 0.3828 0.8937
vt 0.4272 0.9684
vt 0.5161 0.9684
vt 0.5605 0.8937
vt 0.4272 0.8192
vt 0.5161 0.8192
vt 0.3828 0.8937
vt 0.4272 0.9684
vt 0.5161 0.9684
vt 0.2494 0.9783
vt 0.4744 0.6257
vt 0.2494 0.0278
vt 0.4744 0.0674
vt 0.4744 0.0278
vt 0.5229 0.5427
vt 0.7231 0.2910
vt 0.5229 0.0234
vt 0.7231 0.0234
vt 0.9673 0.9472
vt 0.9673 0.4688
vt 0.7827 0.5413
vt 0.7324 0.4414
vt 0.8330 0.3848
vt 0.9673 0.3188
vt 0.8794 0.3188
vt 0.2494 0.9782
vt 0.2494 0.0278
vt 0.4744 0.6257
vt 0.4744 0.0674
vt 0.4744 0.0278
vt 0.5649 0.6089
vt 0.6538 0.4731
vt 0.7427 0.6089
vt 0.7427 0.6543
vt 0.5649 0.6543
vt 0.6636 0.9574
vt 0.6636 0.8251
vt 0.7842 0.9574
vt 0.7842 0.8251
vt 0.5229 0.5427
vt 0.5229 0.0234
vt 0.7231 0.2910
vt 0.7231 0.0234
vt 0.6489 0.7728
vt 0.7690 0.7073
vt 0.7690 0.7728
vt 0.6489 0.7073
vt 0.5786 0.7728
vt 0.5786 0.7073
vt 0.5059 0.7073
vt 0.5059 0.7728
vt 0.9673 0.9472
vt 0.7827 0.5413
vt 0.9673 0.4688
vt 0.7324 0.4414
vt 0.8330 0.3848
vt 0.9673 0.3188
vt 0.8794 0.3188
vt 0.2494 0.9783
vt 0.2494 0.0278
vt 0.4744 0.6257
vt 0.4744 0.0674
vt 0.4744 0.0278
vt 0.5649 0.6089
vt 0.7427 0.6089
vt 0.6538 0.4731
vt 0.7427 0.6543
vt 0.5649 0.6543
vt 0.6636 0.9574
vt 0.7842 0.9574
vt 0.6636 0.8251
vt 0.7842 0.8251
vt 0.5229 0.5427
vt 0.5229 0.0234
vt 0.7231 0.2910
vt 0.7231 0.0234
vt 0.7690 0.7073
vt 0.6489 0.7728
vt 0.7690 0.7728
vt 0.6489 0.7073
vt 0.5786 0.7728
vt 0.5786 0.7073
vt 0.5059 0.7728
vt 0.5059 0.7073
vt 0.9673 0.9472
vt 0.7827 0.5413
vt 0.9673 0.4688
vt 0.7324 0.4414
vt 0.8330 0.3848
vt 0.9673 0.3188
vt 0.8794 0.3188
vt 0.2494 0.9782
vt 0.4744 0.6257
vt 0.2494 0.0278
vt 0.4744 0.0674
vt 0.4744 0.0278
vt 0.5229 0.5427
vt 0.7231 0.2910
vt 0.5229 0.0234
vt 0.7231 0.0234
vt 0.9673 0.9472
vt 0.9673 0.4688
vt 0.7827 0.5413
vt 0.7324 0.4414
vt 0.8330 0.3848
vt 0.9673 0.3188
vt 0.8794 0.3188
vt 0.9004 0.1958
vt 0.8281 0.1958
vt 0.9004 0.2764
vt 0.9634 0.1958
vt 0.9634 0.2764
vt 0.8281 0.2764
vt 0.7656 0.1958
vt 0.9004 0.2764
vt 0.9004 0.1958
vt 0.7656 0.2764
vt 0.8281 0.1958
vt 0.8281 0.2764
vt 0.1145 0.9179
vt 0.0319 0.9179
vt 0.1145 0.9610
vt 0.1970 0.9179
vt 0.1970 0.9610
vt 0.0319 0.9610
vt 0.1145 0.9179
vt 0.1145 0.9610
vt 0.9019 0.0776
vt 0.8301 0.0776
vt 0.9019 0.1543
vt 0.8301 0.1543
vt 0.9663 0.1543
vt 0.9663 0.0776
vt 0.8662 0.0200
vt 0.7656 0.0776
vt 0.7656 0.1543
vt 0.8301 0.0776
vt 0.9019 0.0776
vt 0.9019 0.1543
vt 0.8301 0.1543
vn 0.0000 -1.0000 0.0000
vn 0.0000 1.0000 0.0000
vn -0.9682 0.0695 0.2404
vn -0.9667 0.0722 0.2456
vn -0.9450 0.1048 0.3097
vn -0.9420 0.1086 0.3173
vn -0.9420 0.1085 0.3174
vn -0.9640 -0.0552 -0.2600
vn -0.9648 -0.0533 -0.2575
vn -0.9687 -0.0435 -0.2441
vn -0.9700 -0.0404 -0.2398
vn -0.9583 0.0870 0.2723
vn -0.9640 -0.0359 0.2633
vn -0.9582 0.0869 0.2724
vn -0.9686 -0.0816 0.2347
vn -0.9485 -0.1904 0.2532
vn -0.9463 -0.1489 0.2870
vn -0.9509 -0.1383 0.2769
vn -0.9682 0.0695 -0.2404
vn -0.9450 0.1048 -0.3097
vn -0.9667 0.0722 -0.2456
vn -0.9420 0.1086 -0.3173
vn -0.9420 0.1085 -0.3174
vn 0.0000 -0.8696 0.4937
vn 0.0000 -0.8619 -0.5071
vn 0.0000 -0.2937 0.9559
vn 0.0000 -0.9448 -0.3275
vn -0.9640 -0.0552 0.2600
vn -0.9687 -0.0435 0.2441
vn -0.9648 -0.0533 0.2575
vn -0.9700 -0.0404 0.2398
vn 0.0000 -0.2271 -0.9738
vn 0.0000 0.2392 -0.9709
vn 0.0000 -0.2272 -0.9738
vn 0.0000 -0.5047 -0.8633
vn 0.0000 -0.3241 -0.9460
vn -0.9583 0.0870 -0.2723
vn -0.9582 0.0869 -0.2724
vn -0.9640 -0.0359 -0.2633
vn -0.9686 -0.0816 -0.2347
vn -0.9485 -0.1904 -0.2532
vn -0.9463 -0.1489 -0.2870
vn -0.9509 -0.1383 -0.2769
vn 0.9682 0.0695 0.2404
vn 0.9450 0.1048 0.3097
vn 0.9667 0.0722 0.2456
vn 0.9420 0.1086 0.3173
vn 0.9420 0.1085 0.3174
vn 0.0000 -0.8696 -0.4937
vn 0.0000 -0.8619 0.5071
vn 0.0000 -0.2937 -0.9559
vn 0.0000 -0.9448 0.3275
vn 0.9640 -0.0552 -0.2600
vn 0.9687 -0.0435 -0.2441
vn 0.9648 -0.0533 -0.2575
vn 0.9700 -0.0404 -0.2398
vn 0.0000 0.2392 0.9709
vn 0.0000 -0.2271 0.9738
vn 0.0000 -0.2272 0.9738
vn 0.0000 -0.5047 0.8633
vn 0.0000 -0.3241 0.9460
vn 0.9583 0.0870 0.2723
vn 0.9582 0.0869 0.2724
vn 0.9640 -0.0359 0.2633
vn 0.9686 -0.0816 0.2347
vn 0.9485 -0.1904 0.2532
vn 0.9463 -0.1489 0.2870
vn 0.9509 -0.1383 0.2769
vn 0.9682 0.0695 -0.2404
vn 0.9667 0.0722 -0.2456
vn 0.9450 0.1048 -0.3097
vn 0.9420 0.1086 -0.3173
vn 0.9420 0.1085 -0.3174
vn 0.9640 -0.0552 0.2600
vn 0.9648 -0.0533 0.2575
vn 0.9687 -0.0435 0.2441
vn 0.9700 -0.0404 0.2398
vn 0.9583 0.0870 -0.2723
vn 0.9640 -0.0359 -0.2633
vn 0.9582 0.0869 -0.2724
vn 0.9686 -0.0816 -0.2347
vn 0.9485 -0.1904 -0.2532
vn 0.9463 -0.1489 -0.2870
vn 0.9509 -0.1383 -0.2769
vn 0.8660 0.0000 0.5000
vn 0.8660 0.0000 -0.5000
vn 0.0000 0.0000 1.0000
vn 0.0000 0.0000 -1.0000
vn -0.8660 0.0000 0.5000
vn -0.8660 0.0000 -0.5000
vn 1.0000 0.0000 0.0000
vn -1.0000 0.0000 0.0000
vn 0.8387 -0.2491 0.4842
vn 0.8387 -0.2491 -0.4842
vn 0.0000 -0.2491 0.9685
vn 0.0000 -0.2491 -0.9685
vn -0.8387 -0.2491 -0.4842
vn -0.8387 -0.2491 0.4842
usemtl 0-0-0
s 1
f 1/1/1 2/2/1 3/3/1
f 3/3/1 2/2/1 4/4/1
f 4/4/1 5/5/1 3/3/1
f 6/6/1 5/5/1 4/4/1
f 7/7/2 8/8/2 9/9/2
f 10/10/2 8/8/2 7/7/2
f 10/10/2 7/7/2 11/11/2
f 11/11/2 7/7/2 12/12/2
f 13/13/2 14/14/2 15/15/2
f 16/16/2 14/14/2 13/13/2
f 16/16/2 13/13/2 17/17/2
f 17/17/2 13/13/2 18/18/2
f 19/19/3 20/20/4 21/21/5
f 21/21/5 20/20/4 22/22/6
f 21/21/5 22/22/6 23/23/7
f 24/24/8 25/25/9 26/26/10
f 26/26/10 25/25/9 27/27/11
f 28/28/12 29/29/13 30/30/14
f 30/30/14 29/29/13 31/31/15
f 29/29/13 32/32/16 31/31/15
f 29/29/13 33/33/17 32/32/16
f 32/32/16 33/33/17 34/34/18
f 35/35/19 36/36/20 37/37/21
f 37/37/21 36/36/20 38/38/22
f 36/36/20 39/39/23 38/38/22
f 40/40/24 41/41/25 42/42/24
f 43/43/26 40/40/24 42/42/24
f 44/44/26 40/40/24 43/43/26
f 45/45/27 46/46/27 47/47/27
f 47/47/27 46/46/27 48/48/27
f 49/49/28 50/50/29 51/51/30
f 51/51/30 50/50/29 52/52/31
f 53/53/32 54/54/33 55/55/33
f 56/56/34 54/54/33 53/53/32
f 57/57/35 56/56/34 53/53/32
f 58/58/35 56/56/34 57/57/35
f 57/57/35 59/59/36 58/58/35
f 60/60/36 59/59/36 57/57/35
f 61/61/37 62/62/38 63/63/39
f 63/63/39 62/62/38 64/64/40
f 63/63/39 64/64/40 65/65/41
f 63/63/39 65/65/41 66/66/42
f 66/66/42 65/65/41 67/67/43
f 68/68/44 69/69/45 70/70/46
f 70/70/46 69/69/45 71/71/47
f 69/69/45 72/72/48 71/71/47
f 73/73/49 74/74/49 75/75/50
f 73/73/49 76/76/51 74/74/49
f 77/77/51 76/76/51 73/73/49
f 78/78/52 79/79/52 80/80/52
f 80/80/52 79/79/52 81/81/52
f 82/82/53 83/83/54 84/84/55
f 84/84/55 83/83/54 85/85/56
f 86/86/57 87/87/58 88/88/57
f 89/89/59 87/87/58 86/86/57
f 89/89/59 90/90/60 87/87/58
f 91/91/60 90/90/60 89/89/59
f 91/91/60 92/92/61 90/90/60
f 93/93/61 92/92/61 91/91/60
f 94/94/62 95/95/63 96/96/64
f 96/96/64 95/95/63 97/97/65
f 96/96/64 97/97/65 98/98/66
f 96/96/64 98/98/66 99/99/67
f 99/99/67 98/98/66 100/100/68
f 101/101/69 102/102/70 103/103/71
f 103/103/71 102/102/70 104/104/72
f 103/103/71 104/104/72 105/105/73
f 106/106/74 107/107/75 108/108/76
f 108/108/76 107/107/75 109/109/77
f 110/110/78 111/111/79 112/112/80
f 112/112/80 111/111/79 113/113/81
f 111/111/79 114/114/82 113/113/81
f 111/111/79 115/115/83 114/114/82
f 114/114/82 115/115/83 116/116/84
f 117/117/85 118/118/86 119/119/85
f 120/120/87 117/117/85 121/121/87
f 121/121/87 117/117/85 119/119/85
f 119/119/85 118/118/86 122/122/86
f 118/118/86 123/123/88 122/122/86
f 124/124/89 120/120/87 121/121/87
f 125/125/89 120/120/87 124/124/89
f 122/122/86 123/123/88 126/126/88
f 127/127/90 125/125/89 128/128/90
f 123/123/88 127/127/90 126/126/88
f 126/126/88 127/127/90 128/128/90
f 128/128/90 125/125/89 124/124/89
f 129/129/91 130/130/88 131/131/91
f 132/132/87 129/129/91 133/133/87
f 133/133/87 129/129/91 131/131/91
f 131/131/91 130/130/88 134/134/88
f 135/135/92 132/132/87 136/136/92
f 130/130/88 135/135/92 134/134/88
f 134/134/88 135/135/92 136/136/92
f 136/136/92 132/132/87 133/133/87
f 137/137/93 138/138/94 139/139/85
f 139/139/85 138/138/94 140/140/86
f 141/141/87 137/137/93 139/139/85
f 142/142/95 137/137/93 141/141/87
f 138/138/94 137/137/93 143/143/1
f 137/137/93 142/142/95 143/143/1
f 138/138/94 144/144/96 140/140/86
f 144/144/96 138/138/94 143/143/1
f 140/140/86 144/144/96 145/145/88
f 146/146/97 144/144/96 143/143/1
f 144/144/96 146/146/97 145/145/88
f 147/147/98 146/146/97 143/143/1
f 142/142/95 147/147/98 143/143/1
f 148/148/89 142/142/95 141/141/87
f 147/147/98 142/142/95 148/148/89
f 145/145/88 146/146/97 149/149/90
f 146/146/97 147/147/98 149/149/90
f 149/149/90 147/147/98 148/148/89
